<svg width="143" height="32" viewBox="0 0 143 32" fill="none" xmlns="http://www.w3.org/2000/svg">
<path d="M15.8524 32C24.6074 32 31.7048 24.8366 31.7048 16C31.7048 7.16344 24.6074 0 15.8524 0C7.09736 0 0 7.16344 0 16C0 24.8366 7.09736 32 15.8524 32Z" fill="white"/>
<path d="M45.2557 18.7811C44.4615 18.7811 43.7159 18.6829 42.9054 18.4212C42.1598 18.1758 41.5763 18.503 41.5763 18.9774V23.3946C41.5763 23.7218 41.2845 23.9181 40.7982 23.9181H40.6848C40.1823 23.9181 39.9067 23.7382 39.9067 23.3946V11.1083C39.9067 9.1451 42.0463 7.39459 45.2719 7.39459C48.4813 7.39459 50.6209 9.1451 50.6209 11.1083V15.0674C50.6047 17.0306 48.4651 18.7811 45.2557 18.7811ZM48.9189 11.1083C48.9189 9.76678 47.5574 8.44163 45.2395 8.44163C42.9054 8.44163 41.5601 9.76678 41.5601 11.1083V15.0674C41.5601 16.4089 42.9216 17.7341 45.2395 17.7341C47.5574 17.7341 48.9189 16.4089 48.9189 15.0674V11.1083Z" fill="#511A92"/>
<path d="M62.3726 18.5358H62.2592C61.7567 18.5358 61.4649 18.3394 61.4649 18.0122V11.1084C61.4649 9.76684 60.1034 8.44169 57.7855 8.44169C55.4676 8.44169 54.106 9.76684 54.106 11.1084V18.0286C54.106 18.3558 53.8143 18.5521 53.328 18.5521H53.2146C52.7121 18.5521 52.4365 18.3558 52.4365 18.0286V2.32308C52.4365 1.99588 52.7283 1.79956 53.2146 1.79956H53.328C53.8305 1.79956 54.106 1.99588 54.106 2.32308V7.19833C54.106 7.67277 54.6734 7.99997 55.4352 7.77093C56.2618 7.50917 57.0075 7.41101 57.8017 7.41101C61.0111 7.41101 63.1669 9.16152 63.1669 11.1247V18.045C63.1669 18.3558 62.8751 18.5358 62.3726 18.5358Z" fill="#511A92"/>
<path d="M85.0489 8.76886C84.1412 8.4253 83.8818 8.44166 82.8769 8.44166C80.559 8.44166 79.1975 9.76682 79.1975 11.1083V18.0286C79.1975 18.3558 78.9057 18.5521 78.4032 18.5521H78.2897C77.7873 18.5521 77.5117 18.3558 77.5117 18.0286V11.1083C77.5117 9.14514 79.6513 7.44371 82.8607 7.39463C84.206 7.37827 85.0003 7.49279 85.8918 7.88542C86.2484 8.04902 86.3942 8.35986 86.1349 8.5889C85.908 8.86702 85.4541 8.9161 85.0489 8.76886Z" fill="#511A92"/>
<path d="M95.909 13.5296H90.0089C89.0039 13.5296 88.4366 13.9058 88.4366 14.5602V15.051C88.4366 16.3925 89.7982 17.7177 92.1161 17.7177C93.899 17.7177 94.8068 16.9815 95.3741 16.4416C95.6172 16.1799 96.1197 16.1144 96.4763 16.278C96.8329 16.4416 96.9463 16.7525 96.7194 17.0142C96.0711 17.8322 94.5312 18.7647 92.1161 18.7647C88.9067 18.7647 86.7671 17.0142 86.7671 15.051V11.1083C86.7671 9.1451 88.9067 7.39459 92.1161 7.39459C95.3254 7.39459 97.4812 9.1451 97.4812 11.1083V12.4989C97.4812 13.1533 96.8977 13.5296 95.909 13.5296ZM95.7955 11.1083C95.7955 9.76678 94.4339 8.44163 92.1161 8.44163C89.7982 8.44163 88.4366 9.76678 88.4366 11.1083V11.5991C88.4366 12.2535 89.0039 12.6298 90.0089 12.6298H94.2232C95.2282 12.6298 95.7955 12.2535 95.7955 11.5991V11.1083Z" fill="#511A92"/>
<path d="M104.175 18.7811C101.825 18.7811 100.075 17.8649 99.2155 16.9324C99.0048 16.7034 98.9724 16.3925 99.3614 16.1962C99.6856 16.0326 100.139 16.049 100.431 16.3107C101.209 17.0142 102.538 17.7177 104.175 17.7177C106.818 17.7177 107.855 16.4907 107.855 15.3619C107.855 13.3332 104.175 13.2842 104.175 13.2842C101.031 13.1696 99.2155 12.0408 99.2155 10.3394C99.2155 8.8997 100.901 7.39459 104.175 7.39459C105.602 7.39459 106.996 7.78723 107.774 8.31075C108.098 8.52343 108.098 8.85062 107.774 9.04694C107.45 9.24326 107.028 9.24326 106.558 8.99786C105.926 8.65431 105.164 8.40891 104.159 8.40891C101.485 8.40891 100.804 9.70134 100.804 10.3394C100.804 12.1062 104.127 12.2698 104.127 12.2698C106.98 12.3844 109.524 13.2187 109.524 15.3619C109.524 17.3087 107.531 18.7811 104.175 18.7811Z" fill="#511A92"/>
<path d="M119.558 18.5684C119.039 18.6829 118.439 18.781 117.726 18.781C114.517 18.781 112.361 17.0305 112.361 15.0673V9.734C112.361 9.0796 111.794 8.70332 110.789 8.70332H110.254C109.751 8.70332 109.459 8.35976 109.459 8.098C109.459 7.83625 109.751 7.42725 110.254 7.42725H110.789C111.794 7.42725 112.361 7.05097 112.361 6.39657V2.33931C112.361 2.01211 112.653 1.8158 113.155 1.8158H113.269C113.771 1.8158 114.047 2.01211 114.047 2.33931V6.38021C114.047 7.03461 114.614 7.41089 115.619 7.41089H117.888C118.391 7.41089 118.666 7.81989 118.666 8.08164C118.666 8.3434 118.374 8.68696 117.888 8.68696H115.619C114.614 8.68696 114.047 9.06324 114.047 9.71764V15.051C114.047 16.3925 115.408 17.7176 117.726 17.7176C118.196 17.7176 118.601 17.6522 118.958 17.5704C120.157 17.3414 120.271 18.4048 119.558 18.5684Z" fill="#511A92"/>
<path d="M70.2988 7.4765C66.9111 7.4765 64.9336 9.06341 64.9336 10.6994V15.4929C64.9336 17.1125 66.9111 18.7158 70.2988 18.7158C73.6702 18.7158 75.6477 17.1289 75.6477 15.4929V10.683C75.6639 9.06341 73.6864 7.4765 70.2988 7.4765ZM73.7513 15.0348C73.7513 16.3599 72.4708 17.6524 70.2988 17.6524C68.1106 17.6524 66.8463 16.3436 66.8463 15.0348V11.1248C66.8463 9.79961 68.1268 8.50718 70.2988 8.50718C72.4708 8.50718 73.7513 9.79961 73.7513 11.1248V15.0348Z" fill="#511A92"/>
<path d="M56.0346 29.4309C55.5645 29.8072 54.9486 29.9871 54.2516 29.9871C53.2952 29.9871 52.4524 29.48 51.9175 28.9892L52.6793 27.8603C53.1494 28.3675 53.895 28.6947 54.3975 28.6947C54.8999 28.6947 55.2727 28.4493 55.2727 28.0076C55.2727 27.5495 54.7865 27.3859 54.4947 27.2714C54.203 27.1732 53.7167 26.9933 53.4898 26.8951C53.3277 26.8133 52.9873 26.6988 52.7117 26.4207C52.42 26.1589 52.193 25.7663 52.193 25.1446C52.193 24.5066 52.501 24.0158 52.8738 23.6886C53.2466 23.3777 53.8464 23.165 54.6082 23.165C55.37 23.165 56.2453 23.525 56.6991 23.983L56.0346 25.0791C55.6456 24.6865 55.062 24.4084 54.5595 24.4084C54.0571 24.4084 53.7005 24.6047 53.7005 24.9973C53.7005 25.4063 54.0733 25.5536 54.365 25.6681C54.6568 25.7826 55.1431 25.9626 55.3538 26.0444C55.5321 26.1098 55.9697 26.2898 56.2777 26.5843C56.5533 26.8624 56.7964 27.2714 56.7964 27.8603C56.7964 28.482 56.5046 29.0546 56.0346 29.4309Z" fill="#511A92"/>
<path d="M61.9833 29.8732H60.5245L60.4921 29.3661C60.2976 29.5624 59.9086 29.9714 59.1468 29.9714C58.3201 29.9714 57.4448 29.5133 57.4448 28.4663C57.4448 27.4192 58.4012 27.043 59.2764 27.0102L60.4597 26.9612V26.863C60.4597 26.3559 60.1031 26.0941 59.5034 26.0941C58.9036 26.0941 58.3039 26.3559 58.0608 26.5195L57.6555 25.5215C58.0608 25.3252 58.7902 25.0471 59.6655 25.0471C60.5407 25.0471 61.0432 25.2434 61.416 25.6033C61.7726 25.9469 61.9833 26.4049 61.9833 27.2066V29.8732V29.8732ZM60.4597 27.7792L59.7141 27.8282C59.244 27.8446 58.9685 28.0573 58.9685 28.4008C58.9685 28.7608 59.2602 28.9898 59.6817 28.9898C60.0869 28.9898 60.3624 28.728 60.4597 28.5481V27.7792V27.7792Z" fill="#511A92"/>
<path d="M64.739 29.8732H63.2153V23.2311H64.739V29.8732Z" fill="#511A92"/>
<path d="M68.3533 29.9713C66.8621 29.9713 65.7437 29.0388 65.7437 27.501C65.7437 25.9632 66.8621 25.0306 68.3533 25.0306C69.8445 25.0306 70.9629 25.9795 70.9629 27.501C70.9629 29.0388 69.8445 29.9713 68.3533 29.9713ZM68.3533 26.2413C67.6725 26.2413 67.2835 26.7648 67.2835 27.4683C67.2835 28.1717 67.6725 28.6953 68.3533 28.6953C69.0179 28.6953 69.4231 28.1717 69.4231 27.4683C69.4231 26.7811 69.0179 26.2413 68.3533 26.2413Z" fill="#511A92"/>
<path d="M76.5551 29.8732H75.0315V27.4029C75.0315 26.7812 74.9342 26.3068 74.3021 26.3068C73.6375 26.3068 73.4592 26.8466 73.4592 27.5338V29.8896H71.9355V25.1452H73.4592L73.443 25.8323H73.4592C73.7185 25.407 74.14 25.0634 74.8207 25.0634C76.1823 25.0634 76.5389 25.9469 76.5389 27.092V29.8732H76.5551Z" fill="#511A92"/>
<path d="M83.6708 29.4308C83.2007 29.8071 82.5848 29.9871 81.8878 29.9871C80.9315 29.9871 80.0886 29.4799 79.5537 28.9891L80.3155 27.8603C80.7856 28.3674 81.5312 28.6946 82.0337 28.6946C82.5362 28.6946 82.909 28.4492 82.909 28.0075C82.909 27.5494 82.4227 27.3858 82.1309 27.2713C81.8392 27.1732 81.3529 26.9932 81.126 26.895C80.9639 26.8132 80.6235 26.6987 80.348 26.4206C80.0562 26.1588 79.8293 25.7662 79.8293 25.1445C79.8293 24.5065 80.1372 24.0157 80.51 23.6885C80.8829 23.3777 81.4826 23.165 82.2444 23.165C83.0062 23.165 83.8815 23.5249 84.3354 23.983L83.6708 25.0791C83.2818 24.6864 82.6983 24.4083 82.1958 24.4083C81.6933 24.4083 81.3367 24.6047 81.3367 24.9973C81.3367 25.4063 81.7095 25.5535 82.0013 25.668C82.293 25.7826 82.7793 25.9625 82.99 26.0443C83.1683 26.1098 83.606 26.2897 83.9139 26.5842C84.1895 26.8623 84.4326 27.2713 84.4326 27.8603C84.4488 28.482 84.1571 29.0545 83.6708 29.4308Z" fill="#511A92"/>
<path d="M87.7556 29.9713C86.2644 29.9713 85.146 29.0388 85.146 27.501C85.146 25.9632 86.2644 25.0306 87.7556 25.0306C89.2469 25.0306 90.3653 25.9795 90.3653 27.501C90.3491 29.0388 89.2469 29.9713 87.7556 29.9713ZM87.7556 26.2413C87.0749 26.2413 86.6858 26.7648 86.6858 27.4683C86.6858 28.1717 87.0749 28.6953 87.7556 28.6953C88.4202 28.6953 88.8254 28.1717 88.8254 27.4683C88.8254 26.7811 88.4202 26.2413 87.7556 26.2413Z" fill="#511A92"/>
<path d="M97.238 26.2904H96.2006V27.9918C96.2006 28.4008 96.2655 28.499 96.3303 28.5808C96.3951 28.6626 96.4924 28.6953 96.6869 28.6953C96.93 28.6953 97.1407 28.6135 97.1407 28.6135L97.2218 29.8241C97.1083 29.8569 96.6869 29.9714 96.1358 29.9714C95.5847 29.9714 95.2281 29.8078 94.985 29.5297C94.7418 29.2515 94.6446 28.8589 94.6446 28.1391V26.3068H93.0561V29.8732H91.5162V26.3068H90.9165V25.1452H91.5162V24.8671C91.5162 24.3436 91.6135 23.8691 91.9052 23.591C92.1808 23.2965 92.6346 23.1002 93.2182 23.1002C93.8179 23.1002 94.2556 23.2311 94.2556 23.2311L94.1745 24.2945C94.1745 24.2945 93.8827 24.2127 93.6072 24.2127C93.1533 24.2127 93.0399 24.4745 93.0399 24.8344V25.1452H94.6284V23.8528H96.1682V25.1452H97.2056V26.2904H97.238Z" fill="#511A92"/>
<path d="M105.424 25.1288L103.884 29.8732H102.441L101.517 26.9612L100.593 29.8732H99.1507L97.6108 25.1288H99.1507L99.9773 28.1554L100.885 25.1288H102.133L103.041 28.1554L103.868 25.1288H105.424Z" fill="#511A92"/>
<path d="M110.399 29.8732H108.941L108.908 29.3661C108.714 29.5624 108.325 29.9714 107.563 29.9714C106.736 29.9714 105.861 29.5133 105.861 28.4663C105.861 27.4192 106.817 27.043 107.692 27.0102L108.876 26.9612V26.863C108.876 26.3559 108.519 26.0941 107.919 26.0941C107.32 26.0941 106.72 26.3559 106.477 26.5195L106.072 25.5215C106.477 25.3252 107.206 25.0471 108.081 25.0471C108.957 25.0471 109.459 25.2434 109.832 25.6033C110.189 25.9469 110.399 26.4049 110.399 27.2066V29.8732V29.8732ZM108.892 27.7792L108.146 27.8282C107.676 27.8446 107.401 28.0573 107.401 28.4008C107.401 28.7608 107.692 28.9898 108.114 28.9898C108.519 28.9898 108.795 28.728 108.892 28.5481V27.7792V27.7792Z" fill="#511A92"/>
<path d="M114.678 26.5358H114.614C114.533 26.4867 114.322 26.4213 114.062 26.4213C113.722 26.4213 113.463 26.6176 113.349 26.7648C113.236 26.9121 113.106 27.2229 113.106 27.7628V29.8732H111.583V25.1289H113.106L113.09 25.7996H113.106C113.366 25.2761 113.771 25.0471 114.273 25.0471C114.581 25.0471 114.743 25.1289 114.743 25.1289L114.678 26.5358Z" fill="#511A92"/>
<path d="M119.979 27.8609H116.624C116.689 28.548 117.207 28.8589 117.823 28.8589C118.439 28.8589 118.974 28.5971 119.233 28.4008L119.833 29.2024C119.687 29.3169 119.055 29.9713 117.596 29.9713C116.154 29.9713 115.084 29.0715 115.084 27.501C115.084 25.9304 116.235 25.0306 117.629 25.0306C119.023 25.0306 119.979 25.9632 119.979 27.3537C119.995 27.5828 119.979 27.8609 119.979 27.8609ZM118.585 26.9938C118.569 26.5685 118.261 26.045 117.629 26.045C116.997 26.045 116.672 26.5521 116.656 26.9938H118.585Z" fill="#511A92"/>
<path d="M5.7868 26.2577C0.178489 20.5971 0.178489 11.4192 5.7868 5.77506C11.3951 0.11453 20.4883 0.11453 26.0804 5.77506C31.6888 11.4356 31.6888 20.6135 26.0804 26.2577C20.4721 31.9182 11.3951 31.9182 5.7868 26.2577Z" fill="#511A92"/>
<path d="M9.4983 22.773C8.75269 23.591 7.97466 23.0348 7.8774 22.7894C7.74773 22.5112 7.37492 22.4949 7.00212 22.7403C6.64552 22.9857 6.51585 23.4928 6.95349 23.9182C7.18042 24.1309 7.8774 24.5235 8.72027 24.5072C9.43347 24.4908 10.017 23.8364 10.017 23.8364C10.017 23.8364 10.6005 23.1493 10.2601 22.8221C9.88732 22.4458 9.4983 22.773 9.4983 22.773ZM21.0877 19.9427C21.0877 19.9427 18.3646 20.9571 14.5555 17.1943C10.7464 13.4315 11.7514 11.3538 11.7514 11.3538C11.7514 11.3538 10.7626 10.8466 10.1467 11.4683C9.61176 11.9918 4.95978 16.8344 9.93594 21.775C12.0269 23.8528 15.9495 25.9795 20.6339 22.0204C20.6501 22.0204 22.1575 20.908 21.0877 19.9427ZM24.054 8.75255C23.7136 7.93456 23.1301 7.41104 22.1737 7.24744C21.2174 7.08384 17.9594 6.6912 15.8522 7.93456C13.7288 9.17791 12.4645 10.863 12.4645 10.863C12.4645 10.863 10.9085 13.3006 15.3822 16.6217C18.9157 19.2556 21.1364 18.6012 21.6875 18.3558C22.4979 17.9959 23.4542 16.7198 23.9729 15.5092C24.4916 14.2822 24.8806 11.0266 24.054 8.75255Z" fill="white"/>
</svg>
